<svg height="176" width="176" xmlns="http://www.w3.org/2000/svg"><g fill="none" stroke="#21a8d9" stroke-linecap="round" stroke-linejoin="round" stroke-width="16"><path d="M10 51.3v95.4a5.5 5.5 0 0 0 5.5 5.5 4.4 4.4 0 0 0 1.6-.2l121-35.3a5.5 5.5 0 0 0 4-5.3V86.6a5.6 5.6 0 0 0-4-5.3L17.1 46a5.6 5.6 0 0 0-6.9 3.8 7.7 7.7 0 0 0-.2 1.5z"/><path d="M114.6 123.6v25a5.5 5.5 0 0 1-5.5 5.5h-22a5.5 5.5 0 0 1-5.5-5.5V64.8"/><path d="m143.4 98.3 18.6-5.4a5.7 5.7 0 0 0 4-5.3V62.8a5.5 5.5 0 0 0-4-5.3L40.9 22.1A5.7 5.7 0 0 0 34 26a7.1 7.1 0 0 0-.1 1.4v23.5"/></g></svg>