<svg xmlns="http://www.w3.org/2000/svg" viewBox="0 0 176 176"><g fill="none" stroke="#21a8d9" stroke-linecap="round" stroke-linejoin="round" stroke-width="16"><path d="M60.4 149a4.8 4.8 0 0 1-.6-6.1 19.2 19.2 0 0 0-5.6-26.6h-.1a19.2 19.2 0 0 0-21.1 0 4.6 4.6 0 0 1-6-.6l-14-14L101.6 13l14 14a4.8 4.8 0 0 1 .6 6.1A19.4 19.4 0 0 0 143 59.8a4.6 4.6 0 0 1 6 .6l14 14L74.4 163z"/><path d="M163 76.2V96a4.7 4.7 0 0 1-3.9 4.7 19.4 19.4 0 0 0 0 37.9 4.5 4.5 0 0 1 3.9 4.6V163H37.6v-19.8a4.9 4.9 0 0 1 3.9-4.7 19.2 19.2 0 0 0 15.3-18.8M45 69.7l61.3 61.4"/></g></svg>