<svg height="171" width="172" xmlns="http://www.w3.org/2000/svg"><g fill="none" stroke="#21a8d9" stroke-linecap="round" stroke-linejoin="round" stroke-width="16"><path d="M117.4 109.6 103 148.7a5.9 5.9 0 0 1-7.6 3.6.1.1 0 0 0-.1-.1 6 6 0 0 1-3.5-3.5l-14.4-39.1a7 7 0 0 0-3.6-3.6L34.7 91.6a5.9 5.9 0 0 1-3.6-7.5v-.2a6 6 0 0 1 3.5-3.5L73.8 66a7 7 0 0 0 3.6-3.6l14.4-39.1a5.9 5.9 0 0 1 7.5-3.6h.2a6 6 0 0 1 3.5 3.5l14.4 39.1A6.4 6.4 0 0 0 121 66l39.1 14.4a5.9 5.9 0 0 1 3.6 7.5v.2a6 6 0 0 1-3.5 3.5L121 106a6.4 6.4 0 0 0-3.6 3.6zM26 8v36M44 26H8M36 127v36M54 145H18"/></g></svg>