<svg xmlns="http://www.w3.org/2000/svg" width="176" height="176"><path d="m111 114.6-17.4 47.9a5.9 5.9 0 0 1-7.7 3.5 6 6 0 0 1-3.5-3.5L65 114.6a6.4 6.4 0 0 0-3.6-3.6L13.5 93.6a5.9 5.9 0 0 1-3.5-7.7 6 6 0 0 1 3.5-3.5L61.4 65a6.4 6.4 0 0 0 3.6-3.6l17.4-47.9a5.9 5.9 0 0 1 7.7-3.5 6 6 0 0 1 3.5 3.5L111 61.4a6.4 6.4 0 0 0 3.6 3.6l47.9 17.4a5.9 5.9 0 0 1 3.5 7.7 6 6 0 0 1-3.5 3.5L114.6 111a6.4 6.4 0 0 0-3.6 3.6Z" fill="none" stroke="#2eaadc" stroke-linecap="round" stroke-linejoin="round" stroke-width="16"/></svg>