<svg xmlns="http://www.w3.org/2000/svg" viewBox="0 0 176 176"><path d="M119.4 112.1 105 151.2a5.8 5.8 0 0 1-7.5 3.6h-.1a.1.1 0 0 0-.1-.1h0a6 6 0 0 1-3.5-3.5l-14.4-39.1a7 7 0 0 0-3.6-3.6L36.7 94.1a5.8 5.8 0 0 1-3.6-7.5v-.2a6 6 0 0 1 3.5-3.5l39.2-14.4a7 7 0 0 0 3.6-3.6l14.4-39.1a5.8 5.8 0 0 1 7.5-3.6h.2a6 6 0 0 1 3.5 3.5l14.4 39.1a6.3 6.3 0 0 0 3.6 3.7l39.1 14.4a5.9 5.9 0 0 1 3.6 7.5v.2a6 6 0 0 1-3.5 3.5L123 108.5a6.4 6.4 0 0 0-3.6 3.6ZM28 10.5v36m18-18H10m28 101v36m18-18H20" fill="none" stroke="#21a8d9" stroke-linecap="round" stroke-linejoin="round" stroke-width="16"/></svg>