<svg height="176" width="176" xmlns="http://www.w3.org/2000/svg"><g fill="none" stroke="#21a8d9" stroke-linecap="round" stroke-linejoin="round" stroke-width="16"><path d="M17.8 93.5C2.1 69.8 10.8 39.1 37.4 25s61-6.2 76.8 17.5 7 54.4-19.6 68.5a62.1 62.1 0 0 1-57.2 0l-19.3 4.9a4.8 4.8 0 0 1-5.8-2.7 4.9 4.9 0 0 1 0-2.4z"/><path d="M121.8 58.8a64 64 0 0 1 16.7 5.9c26.7 14.1 35.5 44.9 19.6 68.7l5.6 17.4a4.5 4.5 0 0 1 0 2.3 4.8 4.8 0 0 1-5.8 2.8l-19.4-4.9a62.3 62.3 0 0 1-57.3 0c-14.2-7.5-23.3-19.7-26.4-33"/></g></svg>