<svg height="176" width="176" xmlns="http://www.w3.org/2000/svg"><g fill="none" stroke="#2eaadc" stroke-linecap="round" stroke-linejoin="round" stroke-width="16"><path d="M77.8 70.6 49.1 41.8c-5.8-5.7-4.7-16.1.4-21.3S65 14.4 70.7 20C83.1 32 115 64.2 115 64.2"/><path d="M65 101.3 18.6 54.9c-5.6-6.8-4.9-15.5.7-21.1a16.1 16.1 0 0 1 21-.8l46.3 46.4"/><path d="m123.8 73-20-19.9c-6.1-6.1-5-17.1-.2-21.9s16.7-5.2 21.9.1l22.2 22.1a63.2 63.2 0 0 1 .2 88.7c-24.2 24.4-62.5 23.2-86.8-1.3L14.6 94.4c-5.6-5.7-6.4-16.8-.7-22.5a15.4 15.4 0 0 1 21.4-.3l25.3 25.3"/></g></svg>