<svg height="176" width="176" xmlns="http://www.w3.org/2000/svg"><g fill="none" stroke="#21a8d9" stroke-linecap="round" stroke-linejoin="round" stroke-width="16"><path d="M70.6 81.4 44.9 55.7c-5.1-5.1-4.2-14.3.4-19s13.8-5.4 18.9-.5c11 10.7 39.5 39.5 39.5 39.5M59.1 108.8 17.7 67.4c-5-6.1-4.4-13.9.6-18.8a14.2 14.2 0 0 1 18.7-.7l41.5 41.4"/><path d="M111.6 83.6 93.8 65.8c-5.5-5.5-4.5-15.3-.2-19.6s14.9-4.6 19.6.1L133 66.1a56.4 56.4 0 0 1 .2 79.2c-21.7 21.8-55.8 20.7-77.6-1.2l-41.5-41.4c-5-5.1-5.7-15.1-.6-20.1a13.8 13.8 0 0 1 19.1-.3l22.6 22.6"/><path d="M58.7 32.8a14.4 14.4 0 0 1 3.3-14c4.5-4.7 13.8-5.4 18.9-.5s16 15.9 24.7 24.6M31.8 45.2A13.3 13.3 0 0 1 35 30.7a14.2 14.2 0 0 1 18.7-.8l2.9 2.9M107.5 43.1c-1.8-5.2-.5-11.6 2.8-14.8s14.9-4.6 19.6.1l19.8 19.8a56.3 56.3 0 0 1 .1 79.2 58.2 58.2 0 0 1-7.2 6.1"/></g></svg>