<svg height="176" width="176" xmlns="http://www.w3.org/2000/svg"><g fill="none" stroke="#21a8d9" stroke-linecap="round" stroke-linejoin="round" stroke-width="16"><circle cx="88" cy="88" r="72"/><path d="m152.6 119.8-40.7-25a5 5 0 0 0-2.3-.9l-17.2-2.3a5.8 5.8 0 0 0-6.2 3.5l-10.3 23a6.2 6.2 0 0 0 1.1 6.6l14.1 15.2a6.2 6.2 0 0 1 1.5 5.2l-3 14.9M40.8 33.7 34 49.6a6.1 6.1 0 0 0-.1 4.4l8.7 23a5.7 5.7 0 0 0 4.3 3.8l16 3.4a5.9 5.9 0 0 1 4.2 3.3l2.8 5.9a6.5 6.5 0 0 0 5.4 3.4h10.1"/><path d="m106.4 18.3 7 12.6a6.1 6.1 0 0 1-1.3 7.4L92 56.5l-1.1.8-9.3 5.1a6.9 6.9 0 0 1-2.8.8H62.7a5.8 5.8 0 0 0-5.5 3.7l-6.3 14.7"/></g></svg>