<svg height="176" width="176" xmlns="http://www.w3.org/2000/svg"><g fill="none" stroke="#21a8d9" stroke-linecap="round" stroke-linejoin="round" stroke-width="16"><path d="M116.1 157.8H22.8a4.7 4.7 0 0 1-4.6-4.1L10 79.8a4.6 4.6 0 0 1 4-5.1h110.3a4.5 4.5 0 0 1 4.6 4.6v.5l-8.2 73.9a4.7 4.7 0 0 1-4.6 4.1z"/><path d="M46.4 92.1V69.7a23.1 23.1 0 1 1 46.1 0v22.4"/><path d="M70.8 46.3h90.6a4.7 4.7 0 0 1 4.6 4.6 1.3 1.3 0 0 1-.1.6l-8.1 73.8a4.7 4.7 0 0 1-4.7 4.1h-28.9M83.4 41.3a23.1 23.1 0 0 1 46.2 0"/></g></svg>